<?xml version="1.0" standalone="no"?>
<!DOCTYPE svg PUBLIC "-//W3C//DTD SVG 20010904//EN"
 "http://www.w3.org/TR/2001/REC-SVG-20010904/DTD/svg10.dtd">
<svg version="1.0" xmlns="http://www.w3.org/2000/svg"
 width="719.000000pt" height="405.000000pt" viewBox="0 0 719.000000 405.000000"
 preserveAspectRatio="xMidYMid meet">

<g transform="translate(0.000000,405.000000) scale(0.100000,-0.100000)"
fill="#000000" stroke="none">
<path d="M674 2549 c-20 -6 -34 -17 -38 -31 -7 -27 -8 -148 -1 -148 2 0 38 17
80 37 73 36 75 39 75 73 0 20 -6 43 -12 52 -17 21 -65 29 -104 17z"/>
<path d="M1863 2545 c-42 -18 -60 -54 -42 -86 6 -13 65 -105 129 -204 64 -99
180 -279 258 -400 77 -122 150 -229 161 -239 11 -10 41 -21 65 -23 72 -9 58
-28 537 733 49 78 89 150 89 161 0 42 -80 83 -118 59 -6 -3 -69 -100 -140
-214 -72 -114 -180 -286 -240 -382 -60 -96 -113 -175 -118 -177 -5 -2 -45 54
-89 125 -183 293 -397 628 -408 638 -21 20 -51 23 -84 9z"/>
<path d="M4282 2553 c-12 -2 -27 -13 -32 -24 -7 -13 -10 -147 -8 -392 3 -333
5 -375 21 -404 25 -46 54 -72 117 -102 l55 -26 385 -3 c427 -3 410 -6 410 63
0 65 11 63 -375 67 -319 3 -353 5 -388 22 -73 36 -72 28 -75 428 l-3 357 -37
11 c-20 5 -39 9 -42 9 -3 -1 -15 -4 -28 -6z"/>
<path d="M5346 2550 c-16 -5 -33 -15 -37 -22 -5 -7 -9 -212 -9 -455 0 -430 1
-444 20 -463 24 -24 86 -27 118 -4 l22 15 0 449 c0 394 -2 450 -16 464 -8 9
-21 16 -29 16 -7 0 -19 2 -27 4 -7 2 -26 0 -42 -4z"/>
<path d="M5610 2549 c-13 -5 -28 -15 -32 -22 -4 -7 -8 -211 -8 -454 0 -430 1
-444 20 -463 27 -27 93 -27 120 0 19 19 20 33 20 360 0 235 3 340 11 340 6 0
164 -143 352 -317 471 -437 431 -403 471 -403 19 0 46 4 60 10 l26 10 0 459
c0 515 5 484 -75 484 -79 0 -75 18 -75 -374 0 -225 -4 -349 -10 -349 -5 0
-121 105 -257 233 -428 401 -523 487 -541 487 -9 0 -26 2 -37 5 -11 2 -31 0
-45 -6z"/>
<path d="M4043 2339 l-63 -51 0 -235 c0 -149 -4 -242 -11 -255 -6 -11 -32 -29
-57 -41 -42 -19 -71 -21 -250 -25 -125 -3 -233 0 -282 7 l-80 12 -60 -47 c-33
-26 -57 -50 -54 -55 3 -5 36 -18 73 -30 65 -19 88 -20 377 -17 298 3 311 4
359 26 56 26 99 63 123 107 14 25 17 71 20 300 4 280 -1 355 -21 355 -7 -1
-40 -23 -74 -51z"/>
<path d="M710 2321 l-75 -37 -5 -240 c-4 -180 -8 -245 -18 -257 -24 -28 -94
-48 -197 -55 l-100 -7 0 -60 0 -60 105 -3 c163 -5 256 22 318 92 48 55 53 88
50 389 l-3 274 -75 -36z"/>
</g>
</svg>
