<svg width="643" height="150" viewBox="0 0 643 150" fill="none" xmlns="http://www.w3.org/2000/svg">
<g clip-path="url(#clip0_500_5659)">
<path d="M0 0H643V150H0V0Z" fill="#E8F6D0"/>
<path d="M6.59891 197.161C6.59891 197.161 -24.349 159.197 47.7967 153.661C121.089 148.037 78.7042 189.12 47.7967 179.161C16.8892 169.203 97.1351 149.12 66.2276 139.161C35.3201 129.203 166.86 139.942 228.851 133.161C301.717 125.19 331.156 90.6512 404.485 97.6611C449.796 101.993 458.137 125.263 504.228 127.161C574.313 130.047 643 74.1611 643 74.1611" stroke="#0E60A2"/>
<path d="M62.4941 116.802C59.6471 111.636 68.6873 103.161 68.6873 103.161C68.6873 103.161 80.3478 106.923 81.0739 112.418C81.6216 116.563 76.0066 122.161 76.0066 122.161C76.0066 122.161 64.9925 121.336 62.4941 116.802Z" fill="#D1BB01"/>
<path opacity="0.76" d="M150.462 96.467C147.923 92.7323 151.081 85.7301 151.081 85.7301C151.081 85.7301 158.053 87.8371 159.524 91.9562C160.633 95.064 158.737 99.6665 158.737 99.6665C158.737 99.6665 152.691 99.7445 150.462 96.467Z" fill="#FF573D"/>
<path d="M327.659 119.454C329.628 122.638 326.675 128.451 326.675 128.451C326.675 128.451 320.917 126.545 319.86 123.059C319.063 120.429 320.853 116.605 320.853 116.605C320.853 116.605 325.931 116.66 327.659 119.454Z" fill="#FF573D"/>
<path opacity="0.73" d="M511.917 80.306C515.608 80.8492 519.559 84.5382 519.559 84.5382C519.559 84.5382 515.402 86.0991 511.83 85.0516C509.135 84.2613 506.47 81.8974 506.47 81.8974C506.47 81.8974 508.679 79.8293 511.917 80.306Z" fill="#02AAED"/>
<path opacity="0.96" d="M592.633 117.502C594.934 115.375 601.71 114.399 601.71 114.399C601.71 114.399 602.135 117.706 599.184 119.547C596.958 120.936 592.559 121.646 592.559 121.646C592.559 121.646 590.614 119.369 592.633 117.502Z" fill="#D1BB01"/>
<path opacity="0.86" d="M485.316 141.238C479.938 141.286 472.711 137.025 472.711 137.025C472.711 137.025 477.743 133.956 483.195 134.634C487.308 135.145 492.123 137.847 492.123 137.847C492.123 137.847 490.035 141.196 485.316 141.238Z" fill="#D1BB01"/>
</g>
<defs>
<clipPath id="clip0_500_5659">
<rect width="643" height="150" fill="white"/>
</clipPath>
</defs>
</svg>
