<svg width="399" height="175" viewBox="0 0 399 175" fill="none" xmlns="http://www.w3.org/2000/svg">
<path opacity="0.2" d="M123.016 9.44679L125.427 0L131.628 7.75986L140.929 9.44679L133.35 13.8328L130.939 22.9422L124.738 15.5197L115.438 16.1945L123.016 9.44679Z" fill="#DBA11C"/>
<path opacity="0.2" d="M22.5785 113.447L24.9898 104L31.1904 111.76L40.4913 113.447L32.9128 117.833L30.5015 126.942L24.3009 119.52L15 120.194L22.5785 113.447Z" fill="#DBA11C"/>
<path opacity="0.1" d="M144.952 140.37L159.501 136.156L153.818 150.391L158.675 163.959L146.972 157.41L132.876 161.36L138.106 147.388L130.073 135.668L144.952 140.37Z" fill="#DBA11C"/>
<path d="M275.549 19.075L283.927 21.0019L277.179 26.4922L275.842 34.5615L271.846 28.0827L263.766 26.1501L270.216 20.6654L269.468 12.6356L275.549 19.075Z" fill="#DBA11C"/>
<path d="M299.037 99.7097L307.415 101.637L300.667 107.127L299.33 115.196L295.334 108.717L287.254 106.785L293.704 101.3L292.957 93.2704L299.037 99.7097Z" fill="#DBA11C"/>
<path d="M97.037 70.7097L105.415 72.6367L98.6669 78.127L97.3299 86.1962L93.3344 79.7175L85.2539 77.7849L91.7044 72.3002L90.9567 64.2704L97.037 70.7097Z" fill="#DBA11C"/>
<path d="M17.3069 37.2647L27.9935 39.2275L19.2962 44.6892L17.4842 52.753L12.4586 46.2569L2.15284 44.2897L10.4693 38.8325L9.61556 30.7992L17.3069 37.2647Z" stroke="#DBA11C" stroke-width="1.27457"/>
<path d="M385.744 47.2885L396.841 49.3266L387.81 54.9979L385.928 63.3712L380.71 56.6258L370.009 54.5832L378.644 48.9164L377.758 40.5748L385.744 47.2885Z" stroke="#DBA11C" stroke-opacity="0.3" stroke-width="1.27457"/>
<path d="M384.895 143.931L395.991 145.969L386.96 151.64L385.079 160.014L379.86 153.268L369.159 151.226L377.795 145.559L376.908 137.217L384.895 143.931Z" stroke="#DBA11C" stroke-opacity="0.3" stroke-width="1.27457"/>
</svg>
